<svg width="154" height="115" viewBox="0 0 154 115" fill="none" xmlns="http://www.w3.org/2000/svg">
<rect width="154" height="115" fill="white"/>
<path d="M16.439 54.4881C16.3594 54.4587 16.2907 54.4056 16.2423 54.336C16.1938 54.2664 16.1678 54.1837 16.1678 54.0989C16.1678 54.0142 16.1938 53.9314 16.2423 53.8618C16.2907 53.7923 16.3594 53.7392 16.439 53.7097C18.8257 52.8459 23.0099 50.0938 23.1354 41.4142C23.1363 41.3602 23.1265 41.3066 23.1066 41.2564C23.0866 41.2063 23.0568 41.1606 23.0189 41.1221C22.9811 41.0835 22.936 41.0529 22.8862 41.0319C22.8363 41.011 22.7828 41.0001 22.7288 41H17.2922C17.1878 41.0001 17.0874 41.0402 17.0118 41.112C16.9361 41.1838 16.891 41.2819 16.8856 41.386C16.7937 43.1799 15.7795 50.7478 5.29289 53.7088C5.21181 53.7304 5.13976 53.7773 5.08724 53.8427C5.03471 53.908 5.00447 53.9884 5.00091 54.0721H5C5 54.0821 5 54.0912 5 54.1003C5 54.1094 5 54.1194 5 54.1293C5.00356 54.2131 5.0338 54.2935 5.08633 54.3588C5.13885 54.4242 5.2109 54.4711 5.29198 54.4927C15.7786 57.4537 16.7928 65.0179 16.8847 66.8154C16.89 66.9195 16.9352 67.0176 17.0109 67.0894C17.0865 67.1613 17.1869 67.2014 17.2913 67.2015H22.7279C22.7819 67.2013 22.8354 67.1905 22.8852 67.1695C22.9351 67.1486 22.9802 67.1179 23.018 67.0794C23.0559 67.0409 23.0857 66.9952 23.1056 66.945C23.1256 66.8949 23.1354 66.8412 23.1345 66.7873C23.0099 58.1031 18.8257 55.351 16.439 54.4881Z" fill="#242930"/>
<path d="M60.9034 67.1923H55.0948V58.1558C55.0948 57.3619 54.9165 56.7867 54.56 56.43C54.4009 56.2615 54.209 56.1273 53.9962 56.0354C53.7833 55.9436 53.5539 55.8961 53.322 55.8959C52.8327 55.8959 52.313 56.1097 51.763 56.5372C51.2123 56.965 50.7893 57.5351 50.5396 58.1857V67.1914H44.731V51.1347H49.9593V53.5162C50.5299 52.6406 51.3297 51.9745 52.3588 51.518C53.3878 51.0614 54.6055 50.8325 56.0117 50.8313C57.1123 50.8313 57.9837 51.0296 58.6258 51.4262C59.2327 51.7875 59.7376 52.297 60.093 52.9067C60.4275 53.4917 60.6505 54.1335 60.7506 54.7996C60.8471 55.4056 60.8982 56.018 60.9034 56.6316V67.1923Z" fill="#242930"/>
<path d="M67.4758 67.1924L62.0647 51.1348H68.0261L70.9004 62.6437L73.8038 51.1348H79.215L73.8038 67.1924H67.4758Z" fill="#242930"/>
<path d="M88.0808 67.4976C86.6746 67.4976 85.4212 67.2787 84.3206 66.8409C83.2837 66.4453 82.3414 65.8369 81.5545 65.0552C80.8186 64.3143 80.2416 63.4314 79.859 62.4603C79.4709 61.4789 79.2739 60.4326 79.2787 59.3775C79.2725 58.254 79.4636 57.138 79.8436 56.0804C80.206 55.0665 80.7791 54.1407 81.5254 53.3637C82.3055 52.5654 83.2422 51.9365 84.2769 51.5163C85.3684 51.0585 86.637 50.8296 88.0826 50.8296C89.5089 50.8296 90.7726 51.0585 91.8738 51.5163C92.911 51.9342 93.852 52.5591 94.6389 53.3528C95.3794 54.1095 95.953 55.0126 96.3226 56.0041C96.7005 57.0144 96.8922 58.0847 96.8883 59.1632C96.8883 59.4693 96.8729 59.779 96.8429 60.0951C96.8129 60.4111 96.7765 60.69 96.7355 60.9343H85.4566C85.5173 61.7887 85.8332 62.4042 86.4044 62.7809C86.9552 63.1517 87.6049 63.3485 88.2691 63.3458C88.8909 63.3486 89.5043 63.2019 90.0573 62.918C90.6176 62.634 90.9897 62.2374 91.1734 61.7282L96.0952 63.1324C95.4427 64.4137 94.4391 65.4619 93.0845 66.2769C91.7298 67.0919 90.0619 67.4988 88.0808 67.4976ZM90.6495 57.4538C90.5464 56.6805 90.2608 56.0701 89.7927 55.6226C89.3245 55.1752 88.7233 54.9511 87.9889 54.9505C87.2558 54.9505 86.6546 55.1746 86.1852 55.6226C85.7159 56.0707 85.4306 56.6811 85.3293 57.4538H90.6495Z" fill="#242930"/>
<path d="M109.694 56.0777C108.663 56.0657 107.635 56.1878 106.637 56.441C105.72 56.6832 105.037 57.0904 104.588 57.6627V67.1924H98.7786V51.1348H104.098V54.1875C104.668 53.1091 105.376 52.2798 106.223 51.6997C107.022 51.1338 107.978 50.8298 108.959 50.8296C109.204 50.8219 109.449 50.8323 109.692 50.8605L109.694 56.0777Z" fill="#242930"/>
<path d="M117.673 67.1923C116.685 67.2035 115.708 66.9895 114.815 66.5665C113.963 66.1605 113.208 65.5778 112.599 64.8571C111.97 64.1032 111.488 63.2384 111.177 62.3075C110.833 61.2833 110.662 60.2088 110.672 59.1285C110.66 57.9959 110.844 56.8698 111.218 55.8005C111.556 54.8328 112.082 53.9409 112.764 53.1755C113.425 52.4431 114.23 51.8555 115.129 51.4498C116.081 51.0255 117.114 50.812 118.156 50.824C119.318 50.824 120.337 51.0529 121.213 51.5106C122.084 51.9631 122.806 52.657 123.292 53.5089V51.1346H128.34V65.7272C128.34 66.9885 128.106 68.1281 127.637 69.146C127.178 70.1493 126.499 71.0363 125.65 71.741C124.735 72.4851 123.687 73.0497 122.562 73.405C121.359 73.801 120.025 73.9993 118.56 73.9999C116.848 73.9999 115.361 73.7353 114.097 73.2061C112.832 72.6772 111.687 71.8983 110.731 70.9163L113.788 67.7418C114.417 68.3158 115.134 68.7848 115.912 69.1306C116.743 69.5079 117.645 69.7007 118.557 69.6955C119.069 69.6977 119.579 69.6259 120.07 69.4821C120.539 69.3467 120.973 69.1122 121.344 68.7945C121.727 68.4564 122.026 68.0329 122.215 67.5583C122.428 67.0497 122.535 66.4393 122.536 65.7272V64.689C122.092 65.52 121.39 66.1844 120.535 66.5819C119.638 66.9955 118.661 67.204 117.673 67.1923V67.1923ZM119.753 62.6172C120.297 62.6305 120.834 62.4877 121.299 62.2058C121.736 61.9308 122.149 61.5185 122.537 60.9687V58.0948C122.284 57.4073 121.842 56.8044 121.263 56.3545C120.706 55.9276 120.12 55.7142 119.508 55.7142C119.107 55.7122 118.713 55.8119 118.361 56.0039C118.005 56.1971 117.688 56.456 117.429 56.7669C117.154 57.1006 116.946 57.4843 116.817 57.8968C116.673 58.3455 116.601 58.8143 116.604 59.2856C116.604 60.2829 116.899 61.0867 117.49 61.6971C118.08 62.3075 118.835 62.6142 119.753 62.6172Z" fill="#242930"/>
<path d="M139.195 62.936C141.282 62.936 142.974 61.2467 142.974 59.1629C142.974 57.0791 141.282 55.3899 139.195 55.3899C137.108 55.3899 135.417 57.0791 135.417 59.1629C135.417 61.2467 137.108 62.936 139.195 62.936Z" fill="#EC0B43"/>
<path d="M42.1176 55.7469C41.7493 54.7538 41.1764 53.849 40.4357 53.0911C39.648 52.3002 38.7067 51.6783 37.6697 51.2636C36.5691 50.8058 35.3054 50.5769 33.8785 50.5769C32.4311 50.5769 31.1622 50.8058 30.0719 51.2636C29.0403 51.682 28.1045 52.3053 27.3213 53.0956C26.5801 53.8531 26.007 54.758 25.6395 55.7514C24.8851 57.7904 24.8851 60.0314 25.6395 62.0704C26.007 63.0638 26.5801 63.9688 27.3213 64.7263C28.105 65.516 29.0407 66.1392 30.0719 66.5583C31.1634 67.0161 32.4323 67.2449 33.8785 67.2449C35.3048 67.2449 36.5685 67.0161 37.6697 66.5583C38.7068 66.1415 39.6479 65.5182 40.4357 64.7263C41.1764 63.9683 41.7493 63.0635 42.1176 62.0704C42.8719 60.0314 42.8719 57.7904 42.1176 55.7514V55.7469ZM33.8785 62.679C33.1311 62.6795 32.4003 62.4587 31.7786 62.0444C31.1569 61.6302 30.6722 61.0411 30.3858 60.3517C30.0994 59.6623 30.0242 58.9036 30.1696 58.1715C30.3151 57.4394 30.6748 56.7669 31.2031 56.239C31.7314 55.711 32.4046 55.3514 33.1377 55.2056C33.8707 55.0598 34.6305 55.1343 35.3211 55.4198C36.0117 55.7053 36.602 56.1889 37.0173 56.8095C37.4326 57.43 37.6542 58.1596 37.6542 58.9059C37.6542 59.9061 37.2565 60.8654 36.5485 61.5729C35.8405 62.2804 34.8802 62.6782 33.8785 62.679V62.679Z" fill="#242930"/>
<path fill-rule="evenodd" clip-rule="evenodd" d="M139.195 67.4975C137.748 67.4975 136.48 67.2686 135.389 66.8108C134.358 66.3923 133.422 65.769 132.638 64.9788C131.897 64.2209 131.324 63.316 130.956 62.323C130.202 60.284 130.202 58.043 130.956 56.004C131.325 55.0125 131.898 54.1093 132.638 53.3527C133.422 52.5624 134.358 51.9392 135.389 51.5207C136.481 51.0629 137.75 50.834 139.195 50.834C140.621 50.834 141.885 51.0629 142.986 51.5207C144.024 51.9368 144.965 52.5602 145.752 53.3527C146.493 54.1106 147.066 55.0154 147.434 56.0085C148.189 58.0475 148.189 60.2885 147.434 62.3275C147.065 63.319 146.492 64.2222 145.752 64.9788C144.964 65.7714 144.023 66.3949 142.985 66.8108C141.885 67.2686 140.622 67.4975 139.195 67.4975ZM139.957 55.4666C141.678 55.8183 142.974 57.3396 142.974 59.163C142.974 60.7826 141.952 62.1638 140.517 62.6988C140.221 62.8091 139.907 62.8835 139.581 62.9165C139.454 62.9294 139.326 62.936 139.195 62.936C139.195 62.936 139.195 62.936 139.195 62.936C138.934 62.936 138.68 62.9096 138.434 62.8594C136.712 62.5075 135.417 60.9863 135.417 59.163C135.417 57.5141 136.476 56.1122 137.952 55.5989C138.341 55.4635 138.76 55.3899 139.195 55.3899M139.195 55.3899C139.456 55.3899 139.711 55.4163 139.957 55.4666Z" fill="#242930"/>
</svg>
